<?xml version="1.0" encoding="UTF-8" standalone="no"?>


<!-- Uploaded to: SVG Repo, www.svgrepo.com, Transformed by: SVG Repo Tools -->
<svg 
   xmlns:dc="http://purl.org/dc/elements/1.1/"
   xmlns:cc="http://creativecommons.org/ns#"
   xmlns:rdf="http://www.w3.org/1999/02/22-rdf-syntax-ns#"
   xmlns:svg="http://www.w3.org/2000/svg"
   xmlns="http://www.w3.org/2000/svg"
   xmlns:sodipodi="http://sodipodi.sourceforge.net/DTD/sodipodi-0.dtd"
   xmlns:inkscape="http://www.inkscape.org/namespaces/inkscape"
   width="30"
   height="30"
   viewBox="0 0 30 30"
   version="1.1"
   id="svg822"
   inkscape:version="0.92.4 (f8dce91, 2019-08-02)"
   sodipodi:docname="call-ringing.svg">
  <defs
     id="defs816" />
  <sodipodi:namedview
     id="base"
     pagecolor="#ffffff"
     bordercolor="#666666"
     borderopacity="1.0"
     inkscape:pageopacity="0.0"
     inkscape:pageshadow="2"
     inkscape:zoom="17.833333"
     inkscape:cx="15"
     inkscape:cy="15.55501"
     inkscape:document-units="px"
     inkscape:current-layer="layer1"
     showgrid="true"
     units="px"
     inkscape:window-width="1366"
     inkscape:window-height="713"
     inkscape:window-x="0"
     inkscape:window-y="0"
     inkscape:window-maximized="1"
     showguides="false">
    <inkscape:grid
       type="xygrid"
       id="grid816" />
  </sodipodi:namedview>
  <metadata
     id="metadata819">
    <rdf:RDF>
      <cc:Work
         rdf:about="">
        <dc:format>image/svg+xml</dc:format>
        <dc:type
           rdf:resource="http://purl.org/dc/dcmitype/StillImage" />
        <dc:title></dc:title>
      </cc:Work>
    </rdf:RDF>
  </metadata>
  <g
     inkscape:label="Layer 1"
     inkscape:groupmode="layer"
     id="layer1"
     transform="translate(0,-289.0625)">
    <path
       style="opacity:1;fill:#000000;fill-opacity:1;stroke:none;stroke-width:2;stroke-miterlimit:4;stroke-dasharray:none;stroke-opacity:1"
       d="M 15 3.0820312 L 15 5.0664062 C 17.538188 5.0664062 20.077321 6.0382588 22.019531 7.9804688 C 23.961741 9.9226787 24.933593 12.46181 24.933594 15 L 26.917969 15 C 26.917969 11.94578 25.757953 8.8907663 23.433594 6.5664062 C 21.109235 4.2420462 18.054221 3.0820312 15 3.0820312 z M 8.2207031 5.3925781 L 6.0957031 8.4277344 C 6.4302028 10.726144 8.6753669 14.333569 12.097656 17.755859 C 15.665537 21.323739 19.436115 23.611832 21.712891 23.789062 L 24.597656 21.769531 L 20.488281 17.660156 L 19.78125 18.367188 C 18.767131 19.381307 15.860591 18.661373 13.613281 16.414062 C 11.36597 14.166753 10.653849 11.268026 11.667969 10.253906 L 12.375 9.546875 L 8.2207031 5.3925781 z M 15 7.0058594 L 15 8.9921875 C 16.53344 8.9921875 18.066427 9.5820525 19.242188 10.757812 C 20.417946 11.933573 21.007812 13.46656 21.007812 15 L 22.994141 15 C 22.994141 12.95052 22.214158 10.90166 20.65625 9.34375 C 19.098342 7.78584 17.049472 7.0058594 15 7.0058594 z "
       transform="translate(0,289.0625)"
       id="rect818" />
  </g>
</svg>